<?xml version="1.0" encoding="UTF-8" standalone="no"?>
<!-- Created with Inkscape (http://www.inkscape.org/) -->

<svg
   xmlns:dc="http://purl.org/dc/elements/1.1/"
   xmlns:cc="http://creativecommons.org/ns#"
   xmlns:rdf="http://www.w3.org/1999/02/22-rdf-syntax-ns#"
   xmlns:svg="http://www.w3.org/2000/svg"
   xmlns="http://www.w3.org/2000/svg"
   xmlns:sodipodi="http://sodipodi.sourceforge.net/DTD/sodipodi-0.dtd"
   xmlns:inkscape="http://www.inkscape.org/namespaces/inkscape"
   id="svg1468"
   sodipodi:docname="Anonymous_Floppy_disk_icon_2.svg"
   viewBox="0 0 115.91565 117.63291"
   sodipodi:version="0.32"
   version="1.0"
   inkscape:output_extension="org.inkscape.output.svg.inkscape"
   y="0"
   x="0"
   inkscape:version="0.48.4 r9939"
   width="100%"
   height="100%">
  <defs
     id="defs13" />
  <sodipodi:namedview
     id="base"
     bordercolor="#666666"
     inkscape:pageshadow="2"
     inkscape:window-width="1920"
     pagecolor="#ffffff"
     inkscape:zoom="2.5946105"
     inkscape:window-x="1918"
     showgrid="false"
     borderopacity="1.0"
     inkscape:current-layer="svg1468"
     inkscape:cx="231.10126"
     inkscape:cy="44.624063"
     inkscape:window-y="38"
     inkscape:window-height="983"
     inkscape:pageopacity="0.0"
     inkscape:window-maximized="1"
     fit-margin-top="0"
     fit-margin-left="0"
     fit-margin-right="0"
     fit-margin-bottom="0" />
  <path
     style="font-size:medium;font-style:normal;font-variant:normal;font-weight:normal;font-stretch:normal;text-indent:0;text-align:start;text-decoration:none;line-height:normal;letter-spacing:normal;word-spacing:normal;text-transform:none;direction:ltr;block-progression:tb;writing-mode:lr-tb;text-anchor:start;baseline-shift:baseline;color:#000000;fill:#000000;fill-opacity:1;stroke:none;stroke-width:3.06299996;marker:none;visibility:visible;display:inline;overflow:visible;enable-background:accumulate;font-family:Sans;-inkscape-font-specification:Sans"
     d="m 6.1909623,0.2227082 c -6.53340703,0.513464 -6.58914103,8.528212 -5.90625003,13.3749998 0.221748,33.116927 -0.434738,66.3718 0.3125,99.406252 2.82535103,7.28581 12.40503573,3.55825 18.18749973,4.4375 30.808299,-0.22432 61.72424,0.43823 92.468748,-0.3125 7.31511,-2.75627 3.60436,-12.32107 4.46875,-18.093752 -0.22304,-31.45005 0.43649,-63.038747 -0.3125,-94.4062498 -2.82535,-7.285811 -12.40504,-3.558253 -18.187498,-4.4375 -30.34338,0.02115 -60.689614,-0.04209 -91.0312497,0.03125 z m 102.4687477,7.03125 c 0,34.3749998 0,68.7499998 0,103.1250018 -33.770828,0 -67.541665,0 -101.3124977,0 0,-34.375002 0,-68.750002 0,-103.1250018 33.7708327,0 67.5416697,0 101.3124977,0 z"
     id="rect2052"
     inkscape:connector-curvature="0" />
  <path
     style="font-size:medium;font-style:normal;font-variant:normal;font-weight:normal;font-stretch:normal;text-indent:0;text-align:start;text-decoration:none;line-height:normal;letter-spacing:normal;word-spacing:normal;text-transform:none;direction:ltr;block-progression:tb;writing-mode:lr-tb;text-anchor:start;baseline-shift:baseline;color:#000000;fill:#000000;fill-opacity:1;stroke:none;stroke-width:3.06299996;marker:none;visibility:visible;display:inline;overflow:visible;enable-background:accumulate;font-family:Sans;-inkscape-font-specification:Sans"
     d="m 22.190962,0.5664582 c -6.240343,0.761585 -4.952186,8.59578 -4.78125,12.9999998 0.333908,15.698788 -0.62756,31.593704 0.40625,47.1875 3.479795,5.89662 11.773416,2.000327 17.1875,3.125 20.12896,-0.214073 40.37495,0.410942 60.4375,-0.28125 6.652788,-2.552052 2.58897,-11.507316 3.6875,-16.71875 -0.31331,-14.333449 0.58631,-28.865002 -0.375,-43.0937498 -3.26765,-6.093456 -11.81038,-2.102693 -17.1875,-3.25 -19.791085,0.02164 -39.586536,-0.042749 -59.375,0.03125 z m 69.875,7.03125 c 0,16.4062498 0,32.8124998 0,49.2187498 -22.53125,0 -45.0625,0 -67.59375,0 0,-16.40625 0,-32.8125 0,-49.2187498 22.53125,0 45.0625,0 67.59375,0 z"
     id="rect2054"
     inkscape:connector-curvature="0" />
  <path
     style="font-size:medium;font-style:normal;font-variant:normal;font-weight:normal;font-stretch:normal;text-indent:0;text-align:start;text-decoration:none;line-height:normal;letter-spacing:normal;word-spacing:normal;text-transform:none;direction:ltr;block-progression:tb;writing-mode:lr-tb;text-anchor:start;baseline-shift:baseline;color:#000000;fill:#000000;fill-opacity:1;stroke:none;stroke-width:3.06299996;marker:none;visibility:visible;display:inline;overflow:visible;enable-background:accumulate;font-family:Sans;-inkscape-font-specification:Sans"
     d="m 32.347212,78.878958 c -6.962617,1.12306 -4.068111,10.03254 -4.5625,14.78125 0.748812,6.921052 -1.355094,14.556922 0.75,21.156252 4.266185,4.94644 12.018872,1.1539 17.59375,2.34375 11.911262,-0.37902 24.03624,0.69012 35.84375,-0.40625 6.02947,-2.93461 1.98759,-11.2493 3.15625,-16.375 -0.92798,-6.350122 1.72921,-13.683382 -1.03125,-19.562502 -4.80596,-4.46162 -12.47881,-0.76382 -18.3125,-1.96875 -11.145156,0.0231 -22.294999,-0.0447 -33.4375,0.0312 z m 45.71875,7.03125 c 0,8.0625 0,16.125002 0,24.187502 -14.40625,0 -28.8125,0 -43.21875,0 0,-8.0625 0,-16.125002 0,-24.187502 14.40625,0 28.8125,0 43.21875,0 z"
     id="rect2056"
     inkscape:connector-curvature="0" />
  <path
     style="font-size:medium;font-style:normal;font-variant:normal;font-weight:normal;font-stretch:normal;text-indent:0;text-align:start;text-decoration:none;line-height:normal;letter-spacing:normal;word-spacing:normal;text-transform:none;direction:ltr;block-progression:tb;writing-mode:lr-tb;text-anchor:start;baseline-shift:baseline;color:#000000;fill:#000000;fill-opacity:1;stroke:none;stroke-width:3.06299996;marker:none;visibility:visible;display:inline;overflow:visible;enable-background:accumulate;font-family:Sans;-inkscape-font-specification:Sans"
     d="m 31.909712,78.878958 c -6.962617,1.12306 -4.068111,10.03254 -4.5625,14.78125 0.748812,6.921052 -1.355094,14.556922 0.75,21.156252 4.266185,4.94644 12.018872,1.1539 17.59375,2.34375 7.904866,-0.6426 16.255269,1.13892 23.96875,-0.59375 5.52412,-3.22122 1.60653,-11.11667 2.78125,-16.1875 -0.92798,-6.350122 1.72921,-13.683382 -1.03125,-19.562502 -4.80596,-4.46162 -12.478815,-0.76382 -18.3125,-1.96875 -7.061606,0.0263 -14.128629,-0.0491 -21.1875,0.0312 z m 33.46875,7.03125 c 0,8.0625 0,16.125002 0,24.187502 -10.322917,0 -20.645833,0 -30.96875,0 0,-8.0625 0,-16.125002 0,-24.187502 10.322917,0 20.645833,0 30.96875,0 z"
     id="rect2060"
     inkscape:connector-curvature="0" />
  <metadata
     id="metadata11">
    <rdf:RDF>
      <cc:Work>
        <dc:format>image/svg+xml</dc:format>
        <dc:type
           rdf:resource="http://purl.org/dc/dcmitype/StillImage" />
        <cc:license
           rdf:resource="http://creativecommons.org/licenses/publicdomain/" />
        <dc:publisher>
          <cc:Agent
             rdf:about="http://openclipart.org/">
            <dc:title>Openclipart</dc:title>
          </cc:Agent>
        </dc:publisher>
        <dc:title>Floppy disk icon</dc:title>
        <dc:date>2006-12-26T00:00:00</dc:date>
        <dc:description />
        <dc:source>https://openclipart.org/detail/24502/-by--24502</dc:source>
        <dc:creator>
          <cc:Agent>
            <dc:title>Anonymous</dc:title>
          </cc:Agent>
        </dc:creator>
      </cc:Work>
      <cc:License
         rdf:about="http://creativecommons.org/licenses/publicdomain/">
        <cc:permits
           rdf:resource="http://creativecommons.org/ns#Reproduction" />
        <cc:permits
           rdf:resource="http://creativecommons.org/ns#Distribution" />
        <cc:permits
           rdf:resource="http://creativecommons.org/ns#DerivativeWorks" />
      </cc:License>
    </rdf:RDF>
  </metadata>
  <rect
     style="fill:#000000;fill-opacity:1;stroke:none"
     id="rect3198"
     width="9.6353579"
     height="18.307178"
     x="37.867592"
     y="88.780403"
     rx="2.0453999"
     ry="1.4744999" />
</svg>
