<?xml version="1.0" encoding="UTF-8" standalone="no"?>
<!-- Created with Inkscape (http://www.inkscape.org/) -->

<svg
   xmlns:dc="http://purl.org/dc/elements/1.1/"
   xmlns:cc="http://creativecommons.org/ns#"
   xmlns:rdf="http://www.w3.org/1999/02/22-rdf-syntax-ns#"
   xmlns:svg="http://www.w3.org/2000/svg"
   xmlns="http://www.w3.org/2000/svg"
   xmlns:sodipodi="http://sodipodi.sourceforge.net/DTD/sodipodi-0.dtd"
   xmlns:inkscape="http://www.inkscape.org/namespaces/inkscape"
   width="1000"
   height="1000"
   id="svg2"
   version="1.1"
   inkscape:version="0.48.4 r9939"
   sodipodi:docname="logo2.svg">
  <defs
     id="defs4" />
  <sodipodi:namedview
     id="base"
     pagecolor="#ffffff"
     bordercolor="#666666"
     borderopacity="1.0"
     inkscape:pageopacity="0.0"
     inkscape:pageshadow="2"
     inkscape:zoom="0.49497475"
     inkscape:cx="112.84397"
     inkscape:cy="668.50223"
     inkscape:document-units="px"
     inkscape:current-layer="layer1"
     showgrid="false"
     inkscape:window-width="1920"
     inkscape:window-height="983"
     inkscape:window-x="1918"
     inkscape:window-y="38"
     inkscape:window-maximized="1"
     showguides="true"
     inkscape:guide-bbox="true">
    <sodipodi:guide
       orientation="1,0"
       position="499.01536,1123.2896"
       id="guide3153" />
  </sodipodi:namedview>
  <metadata
     id="metadata7">
    <rdf:RDF>
      <cc:Work
         rdf:about="">
        <dc:format>image/svg+xml</dc:format>
        <dc:type
           rdf:resource="http://purl.org/dc/dcmitype/StillImage" />
        <dc:title></dc:title>
      </cc:Work>
    </rdf:RDF>
  </metadata>
  <g
     inkscape:label="Layer 1"
     inkscape:groupmode="layer"
     id="layer1"
     transform="translate(0,-52.362153)">
    <g
       id="g3142"
       transform="matrix(0.83961353,0,0,0.83961353,50.054425,168.80182)">
      <path
         transform="matrix(2.4546637,0,0,2.4546637,333.61717,-728.31553)"
         d="m 179.28572,712.14288 c 0,6.90356 -5.59644,12.5 -12.5,12.5 -6.90356,0 -12.5,-5.59644 -12.5,-12.5 0,-6.90356 5.59644,-12.5 12.5,-12.5 6.90356,0 12.5,5.59644 12.5,12.5 z"
         sodipodi:ry="12.5"
         sodipodi:rx="12.5"
         sodipodi:cy="712.14288"
         sodipodi:cx="166.78572"
         id="path3076-3"
         style="fill:#28170b;fill-opacity:1;stroke:#000000"
         sodipodi:type="arc" />
      <path
         transform="matrix(2.4546637,0,0,2.4546637,-71.037151,-727.51271)"
         d="m 179.28572,712.14288 c 0,6.90356 -5.59644,12.5 -12.5,12.5 -6.90356,0 -12.5,-5.59644 -12.5,-12.5 0,-6.90356 5.59644,-12.5 12.5,-12.5 6.90356,0 12.5,5.59644 12.5,12.5 z"
         sodipodi:ry="12.5"
         sodipodi:rx="12.5"
         sodipodi:cy="712.14288"
         sodipodi:cx="166.78572"
         id="path3076"
         style="fill:#28170b;fill-opacity:1;stroke:#000000"
         sodipodi:type="arc" />
      <path
         inkscape:connector-curvature="0"
         id="path3066"
         d="m 272.61577,1006.5319 529.506,0 -205.13975,-920.498931 -131.49984,0 z"
         style="fill:#502d16;stroke:#000000;stroke-width:2.45466375px;stroke-linecap:butt;stroke-linejoin:miter;stroke-opacity:1" />
      <path
         inkscape:connector-curvature="0"
         id="path3068"
         d="m 379.56895,704.95888 319.10628,0 -110.45987,-533.01269 -98.18654,0 z"
         style="fill:#a05a2c;stroke:#000000;stroke-width:2.45466375px;stroke-linecap:butt;stroke-linejoin:miter;stroke-opacity:1" />
      <path
         inkscape:connector-curvature="0"
         id="path3070"
         d="m 465.52862,85.921061 131.41798,0 -62.91946,-22.316255 z"
         style="fill:#784421;stroke:#000000;stroke-width:2.45466375px;stroke-linecap:butt;stroke-linejoin:miter;stroke-opacity:1" />
      <path
         inkscape:connector-curvature="0"
         id="path3098"
         d="m 499.67215,646.22226 76.2699,0 -12.27332,-472.52275 -55.22994,0 z"
         style="fill:#d45500;stroke:#000000;stroke-width:2.45466375px;stroke-linecap:butt;stroke-linejoin:miter;stroke-opacity:1" />
      <path
         inkscape:connector-curvature="0"
         id="path3100"
         d="m 394.86045,695.58897 9.29844,-44.01265 266.55536,0 10.53825,44.01265 z"
         style="fill:#d45500;stroke:#000000;stroke-width:2.45466375px;stroke-linecap:butt;stroke-linejoin:miter;stroke-opacity:1" />
      <path
         inkscape:connector-curvature="0"
         id="path3072"
         d="M 505.80882,703.20554 174.42922,260.48942 162.1559,269.25606 489.08468,704.8874 z"
         style="fill:#666666;stroke:#000000;stroke-width:2.45466375px;stroke-linecap:butt;stroke-linejoin:miter;stroke-opacity:1" />
      <path
         inkscape:connector-curvature="0"
         id="path3074"
         d="m 182.23606,349.68689 62.60951,-45.25243 24.17596,49.59169 0.6199,9.29844 -34.71419,26.65554 -11.15815,-0.61988 z"
         style="fill:#4d4d4d;stroke:#000000;stroke-width:2.45466375px;stroke-linecap:butt;stroke-linejoin:miter;stroke-opacity:1" />
    </g>
    <path
       style="fill:#ffffff;fill-opacity:0.50196078"
       d="M 500.03125 170.90625 C 496.43787 173.73013 493.13917 176.87442 490.21875 180.1875 C 488.01442 182.81271 486.11776 185.85808 484.625 189.125 L 551.40625 189.125 L 500.03125 170.90625 z M 484.59375 189.21875 C 479.82804 199.71568 479.38677 212.50257 487.65625 221.25 C 500.21679 234.33339 521.42303 232.18908 536.09375 224.09375 C 543.26361 220.49848 550.38976 215.48709 555.90625 209.25 L 551.4375 189.21875 L 484.59375 189.21875 z "
       transform="translate(0,52.362153)"
       id="path3034-7" />
    <path
       style="fill:#000000"
       d="m 65.844603,357.27965 c -2.047508,-2.04753 -0.09029,-4.5711 3.545346,-4.5711 6.968434,0 14.470097,-10.31731 14.470097,-19.90124 l 0,-2.95415 -20.334579,-0.0222 c -21.462911,-0.0226 -21.606423,-0.0424 -23.299487,-3.22029 -0.668778,-1.25537 -0.657375,-1.79476 0.05835,-2.75376 0.489482,-0.65593 3.195739,-4.23376 6.013918,-7.95072 15.060896,-19.86425 23.042301,-39.70981 24.540162,-61.01849 0.61589,-8.76182 0.816128,-8.97204 7.057727,-7.40964 7.81085,1.95522 15.954514,2.10851 22.990593,0.43275 7.32806,-1.74531 8.28806,-1.7542 9.1813,-0.0852 0.6209,1.16017 -0.88372,3.18114 -11.886098,15.96516 -33.199419,38.57544 -49.693707,57.78209 -50.535813,58.846 -0.870768,1.10011 0.120463,1.16558 17.645715,1.16558 l 18.568283,0 0.04725,-15.62907 c 0.02596,-8.59598 0.252838,-16.13984 0.504145,-16.76412 0.251307,-0.62427 2.602389,-2.64059 5.224656,-4.48067 6.1947,-4.3469 9.901617,-8.58673 13.309462,-15.22286 1.78779,-3.48139 3.21995,-5.46268 4.06157,-5.6189 2.95321,-0.54821 3.06942,0.58556 3.06942,29.94706 l -3e-5,27.76856 8.69083,0 c 7.00446,0 8.89579,0.20498 9.74717,1.05634 1.23872,1.23872 1.30587,1.92687 0.36048,3.69339 -0.63566,1.18772 -1.48751,1.30024 -9.84467,1.30024 l -9.14879,0 0.38273,4.53748 c 0.47952,5.68521 2.31719,10.02475 5.88359,13.89383 2.73099,2.96278 4.63217,3.90844 9.49284,4.72189 2.70927,0.45341 3.62095,1.80119 2.55966,3.78421 -0.89974,1.68121 -3.56868,1.67116 -15.75168,-0.0592 -11.81808,-1.67853 -18.914678,-1.67509 -31.518693,0.0155 -11.587249,1.55406 -13.979772,1.6386 -15.085409,0.53297 z M 259.434,276.03868 c -8.39848,-1.49651 -15.2797,-6.92648 -17.26971,-13.62752 -3.64606,-12.27766 3.396,-26.50659 18.17471,-36.7231 15.29071,-10.57046 31.77916,-13.39904 43.50171,-7.46266 l 3.86257,1.95602 0.17082,-81.12024 0.17082,-81.12025 2.56774,-0.21142 c 3.39912,-0.279881 4.49056,0.750417 4.49056,4.239016 0,4.316532 1.76301,13.536882 3.73436,19.530373 2.77297,8.43058 8.89213,20.263721 18.75572,36.269461 14.31006,23.22113 20.26288,35.81028 22.84575,48.31473 1.9467,9.42465 1.02145,27.37531 -2.04871,39.74586 -1.74732,7.04046 -5.70371,18.41212 -6.93486,19.93255 -2.18907,2.70337 -7.39452,1.39683 -8.30491,-2.08449 -0.17592,-0.67269 0.27935,-2.84622 1.01171,-4.83006 7.52948,-20.39634 9.86044,-38.46303 6.60487,-51.19228 -3.37962,-13.2142 -13.32279,-28.47545 -30.28575,-46.48401 l -5.37818,-5.70968 -0.004,57.95612 c -0.002,33.92794 -0.28299,60.46439 -0.67479,64.00607 -1.5482,13.99484 -11.48243,25.90721 -28.27322,33.90308 -9.36938,4.46177 -18.79334,6.12408 -26.71556,4.71245 z m 246.70403,0 c -8.39845,-1.49651 -15.2797,-6.92648 -17.2697,-13.62752 -3.64607,-12.27766 3.39602,-26.50659 18.1747,-36.7231 15.29071,-10.57046 31.77916,-13.39904 43.50172,-7.46266 l 3.86256,1.95602 0.17082,-81.12024 0.17082,-81.12025 2.6094,-0.21386 c 1.43517,-0.117578 2.85434,0.03372 3.15375,0.336097 0.29938,0.30251 0.8547,3.575007 1.23408,7.272211 0.37934,3.6972 1.31757,8.68843 2.08491,11.0916 2.38962,7.483761 8.46388,18.766441 16.11666,29.936042 15.26418,22.27878 20.41325,31.31495 23.92789,41.99128 1.69859,5.15981 1.88492,6.65902 1.92144,15.46103 0.0388,9.34818 -0.0493,9.9989 -2.1512,15.89708 l -2.19162,6.14993 2.0182,5.04024 c 5.23047,13.06244 5.42855,28.73694 0.58374,46.18452 -1.97909,7.12723 -5.13565,14.86043 -6.79111,16.6374 -2.36634,2.53998 -6.68292,1.68053 -7.92153,-1.57726 -0.508,-1.33611 -0.0965,-2.91783 2.09019,-8.03616 4.22169,-9.88114 6.08855,-17.99022 6.49189,-28.19885 0.41723,-10.55968 -0.43706,-14.70279 -4.85127,-23.52765 -4.31415,-8.62485 -10.64547,-16.71019 -21.84499,-27.89705 l -9.75824,-9.74715 -0.33612,44.08211 -0.3361,44.08208 -2.82304,5.69599 c -4.53325,9.14666 -13.34387,17.11681 -25.12217,22.72571 -9.36939,4.46177 -18.79333,6.12408 -26.71554,4.71245 z m 90.48542,-109.53453 c 0.6922,-14.7933 -7.32892,-30.03107 -26.44804,-50.24364 -4.28649,-4.53163 -8.01786,-8.23932 -8.29193,-8.23932 -0.85089,0 -0.0404,8.15185 1.33667,13.44435 0.72151,2.7729 2.9618,8.36912 4.97843,12.43603 3.52498,7.10882 6.57446,11.81293 20.47758,31.58853 7.28896,10.36776 7.50832,10.39573 7.94729,1.01405 z m 57.40257,109.53453 c -8.3985,-1.49651 -15.27972,-6.92648 -17.26968,-13.62752 -3.64614,-12.27766 3.39597,-26.50659 18.17468,-36.7231 15.29068,-10.57046 31.77918,-13.39904 43.50173,-7.46266 l 3.86255,1.95602 0.17082,-81.12024 0.17082,-81.12025 2.56776,-0.21142 c 3.39913,-0.279881 4.49054,0.750417 4.49054,4.239016 0,4.316532 1.76304,13.536882 3.73436,19.530373 2.77299,8.43058 8.89211,20.263721 18.7557,36.269461 14.3101,23.22113 20.26288,35.81028 22.84572,48.31473 1.94677,9.42465 1.02152,27.37531 -2.04863,39.74586 -1.74738,7.04046 -5.70378,18.41212 -6.93487,19.93255 -2.18909,2.70337 -7.39454,1.39683 -8.30493,-2.08449 -0.17592,-0.67269 0.27937,-2.84622 1.01169,-4.83006 7.52953,-20.39634 9.86051,-38.46303 6.60487,-51.19228 -3.37963,-13.2142 -13.3228,-28.47545 -30.28576,-46.48401 l -5.37815,-5.70968 -0.007,57.95612 c 0,33.92794 -0.28299,60.46439 -0.67477,64.00607 -1.54824,13.99484 -11.48243,25.90721 -28.27321,33.90308 -9.36939,4.46177 -18.79335,6.12408 -26.71557,4.71245 z m 207.71538,0 c -16.28389,-2.90159 -22.70429,-17.38808 -14.83519,-33.47287 5.18752,-10.60338 21.0005,-22.44864 34.54059,-25.87383 10.7183,-2.71141 18.16535,-1.95806 27.39289,2.77106 0.27728,0.1422 0.50416,-35.70628 0.50416,-79.66311 0,-64.194152 0.1706,-80.154844 0.86709,-81.107296 0.63357,-0.866487 1.58396,-1.127356 3.52915,-0.968758 l 2.66205,0.216965 0.52273,6.049947 c 1.39577,16.154761 6.29657,27.868041 22.92222,54.785792 13.52556,21.89849 19.68792,35.01408 22.22695,47.3064 1.94676,9.42465 1.02151,27.37531 -2.04864,39.74586 -1.74737,7.04046 -5.70378,18.41212 -6.93487,19.93255 -2.18909,2.70337 -7.39453,1.39683 -8.30492,-2.08449 -0.17593,-0.67269 0.27937,-2.84622 1.01168,-4.83006 7.52953,-20.39634 9.86051,-38.46303 6.60487,-51.19228 -3.37095,-13.18039 -13.83275,-29.22948 -30.27233,-46.44 l -5.05548,-5.29252 -0.3361,63.4907 -0.33611,63.4907 -2.82304,5.69648 c -4.53303,9.14703 -13.34334,17.11708 -25.12213,22.72621 -9.36939,4.46178 -18.79335,6.12409 -26.71557,4.71246 z M 349.13623,257.57917 c -1.7324,-0.43988 -3.93726,-1.52495 -4.8997,-2.41129 -2.29127,-2.11007 -4.23187,-6.39399 -4.23187,-9.34199 0,-2.948 1.9406,-7.23192 4.23187,-9.34201 2.22064,-2.04502 7.27516,-3.35263 10.60549,-2.74364 3.25342,0.59492 5.39446,2.00726 7.77571,5.12926 1.63805,2.14758 1.89337,3.08564 1.89337,6.95639 0,3.87075 -0.25532,4.8088 -1.89337,6.95639 -3.56513,4.67416 -7.89597,6.21511 -13.4815,4.79689 z M 45.005856,245.01923 c -1.858805,-1.8588 -0.130002,-11.35996 3.30999,-18.19041 2.891632,-5.74178 10.787161,-13.4077 22.435951,-21.78346 18.976347,-13.64449 24.71613,-21.68804 25.680673,-35.98822 0.895083,-13.27046 -3.205966,-24.93452 -10.01822,-28.4934 -4.464234,-2.33222 -13.208169,-0.41893 -15.739234,3.44394 -1.535864,2.34401 -0.871368,6.46815 1.528675,9.48795 5.017607,6.31321 5.040147,6.36381 4.784691,10.74545 -0.441652,7.57567 -5.809798,13.0192 -13.378858,13.56672 -5.356255,0.38743 -9.218131,-1.13497 -12.586577,-4.96171 -4.795961,-5.44852 -5.304077,-12.72527 -1.46332,-20.95645 4.525307,-9.69828 15.353488,-16.35846 28.318668,-17.41817 9.093721,-0.74327 20.419879,1.74041 28.480085,6.24535 4.52349,2.52825 10.54194,8.326 12.6351,12.17181 3.71142,6.81913 4.60468,13.66526 2.8584,21.90718 -1.5222,7.18431 -3.82998,11.46504 -8.90852,16.52444 -5.39657,5.37622 -10.19548,8.16492 -25.049995,14.55666 -6.100393,2.62493 -13.2091,5.86856 -15.797136,7.20809 l -4.705513,2.4355 3.121154,-0.38985 c 6.722206,-0.83962 15.866152,1.79611 24.568824,7.08188 7.175066,4.35791 11.129036,5.78668 16.033736,5.79374 4.64988,0.007 7.04475,-1.20383 9.03764,-4.56815 2.46434,-4.16028 3.21364,-4.56013 5.06883,-2.70495 2.47636,2.47636 -0.96671,11.04968 -6.33548,15.77544 -5.62613,4.95232 -16.68115,9.31728 -23.597654,9.31728 -3.736379,0 -9.853278,-1.52905 -13.442882,-3.36033 -1.455533,-0.74256 -4.585362,-3.16388 -6.955168,-5.38075 -6.249452,-5.84602 -9.907918,-7.04051 -16.237833,-5.30152 -3.611657,0.99221 -8.177629,5.74094 -8.792209,9.14417 -0.837847,4.63958 -2.719657,6.22593 -4.853818,4.09177 z"
       id="path3034"
       inkscape:connector-curvature="0" />
  </g>
</svg>
