<?xml version="1.0" encoding="UTF-8" standalone="no"?>
<!-- Created with Inkscape (http://www.inkscape.org/) -->

<svg
   xmlns:dc="http://purl.org/dc/elements/1.1/"
   xmlns:cc="http://creativecommons.org/ns#"
   xmlns:rdf="http://www.w3.org/1999/02/22-rdf-syntax-ns#"
   xmlns:svg="http://www.w3.org/2000/svg"
   xmlns="http://www.w3.org/2000/svg"
   xmlns:sodipodi="http://sodipodi.sourceforge.net/DTD/sodipodi-0.dtd"
   xmlns:inkscape="http://www.inkscape.org/namespaces/inkscape"
   width="1024"
   height="500"
   id="svg2"
   version="1.1"
   inkscape:version="0.48.4 r9939"
   sodipodi:docname="logo3.svg">
  <defs
     id="defs4" />
  <sodipodi:namedview
     id="base"
     pagecolor="#ffffff"
     bordercolor="#666666"
     borderopacity="1.0"
     inkscape:pageopacity="0.0"
     inkscape:pageshadow="2"
     inkscape:zoom="0.24748737"
     inkscape:cx="283.31037"
     inkscape:cy="805.34892"
     inkscape:document-units="px"
     inkscape:current-layer="layer1"
     showgrid="false"
     inkscape:window-width="1920"
     inkscape:window-height="983"
     inkscape:window-x="1918"
     inkscape:window-y="38"
     inkscape:window-maximized="1"
     showguides="true"
     inkscape:guide-bbox="true">
    <sodipodi:guide
       orientation="1,0"
       position="499.01536,1123.2896"
       id="guide3153" />
    <sodipodi:guide
       orientation="0,1"
       position="-792.96975,239.40615"
       id="guide4183" />
  </sodipodi:namedview>
  <metadata
     id="metadata7">
    <rdf:RDF>
      <cc:Work
         rdf:about="">
        <dc:format>image/svg+xml</dc:format>
        <dc:type
           rdf:resource="http://purl.org/dc/dcmitype/StillImage" />
        <dc:title></dc:title>
      </cc:Work>
    </rdf:RDF>
  </metadata>
  <g
     inkscape:label="Layer 1"
     inkscape:groupmode="layer"
     id="layer1"
     transform="translate(0,-552.36215)">
    <g
       id="g3142"
       transform="matrix(0.49476512,0,0,0.49476512,575.58562,527.70354)">
      <path
         transform="matrix(2.4546637,0,0,2.4546637,333.61717,-728.31553)"
         d="m 179.28572,712.14288 c 0,6.90356 -5.59644,12.5 -12.5,12.5 -6.90356,0 -12.5,-5.59644 -12.5,-12.5 0,-6.90356 5.59644,-12.5 12.5,-12.5 6.90356,0 12.5,5.59644 12.5,12.5 z"
         sodipodi:ry="12.5"
         sodipodi:rx="12.5"
         sodipodi:cy="712.14288"
         sodipodi:cx="166.78572"
         id="path3076-3"
         style="fill:#28170b;fill-opacity:1;stroke:#000000"
         sodipodi:type="arc" />
      <path
         transform="matrix(2.4546637,0,0,2.4546637,-71.037151,-727.51271)"
         d="m 179.28572,712.14288 c 0,6.90356 -5.59644,12.5 -12.5,12.5 -6.90356,0 -12.5,-5.59644 -12.5,-12.5 0,-6.90356 5.59644,-12.5 12.5,-12.5 6.90356,0 12.5,5.59644 12.5,12.5 z"
         sodipodi:ry="12.5"
         sodipodi:rx="12.5"
         sodipodi:cy="712.14288"
         sodipodi:cx="166.78572"
         id="path3076"
         style="fill:#28170b;fill-opacity:1;stroke:#000000"
         sodipodi:type="arc" />
      <path
         inkscape:connector-curvature="0"
         id="path3066"
         d="m 272.61577,1006.5319 529.506,0 -205.13975,-920.498931 -131.49984,0 z"
         style="fill:#502d16;stroke:#000000;stroke-width:2.45466375px;stroke-linecap:butt;stroke-linejoin:miter;stroke-opacity:1" />
      <path
         inkscape:connector-curvature="0"
         id="path3068"
         d="m 379.56895,704.95888 319.10628,0 -110.45987,-533.01269 -98.18654,0 z"
         style="fill:#a05a2c;stroke:#000000;stroke-width:2.45466375px;stroke-linecap:butt;stroke-linejoin:miter;stroke-opacity:1" />
      <path
         inkscape:connector-curvature="0"
         id="path3070"
         d="m 465.52862,85.921061 131.41798,0 -62.91946,-22.316255 z"
         style="fill:#784421;stroke:#000000;stroke-width:2.45466375px;stroke-linecap:butt;stroke-linejoin:miter;stroke-opacity:1" />
      <path
         inkscape:connector-curvature="0"
         id="path3098"
         d="m 499.67215,646.22226 76.2699,0 -12.27332,-472.52275 -55.22994,0 z"
         style="fill:#d45500;stroke:#000000;stroke-width:2.45466375px;stroke-linecap:butt;stroke-linejoin:miter;stroke-opacity:1" />
      <path
         inkscape:connector-curvature="0"
         id="path3100"
         d="m 394.86045,695.58897 9.29844,-44.01265 266.55536,0 10.53825,44.01265 z"
         style="fill:#d45500;stroke:#000000;stroke-width:2.45466375px;stroke-linecap:butt;stroke-linejoin:miter;stroke-opacity:1" />
      <path
         inkscape:connector-curvature="0"
         id="path3072"
         d="M 505.80882,703.20554 174.42922,260.48942 162.1559,269.25606 489.08468,704.8874 z"
         style="fill:#666666;stroke:#000000;stroke-width:2.45466375px;stroke-linecap:butt;stroke-linejoin:miter;stroke-opacity:1" />
      <path
         inkscape:connector-curvature="0"
         id="path3074"
         d="m 182.23606,349.68689 62.60951,-45.25243 24.17596,49.59169 0.6199,9.29844 -34.71419,26.65554 -11.15815,-0.61988 z"
         style="fill:#4d4d4d;stroke:#000000;stroke-width:2.45466375px;stroke-linecap:butt;stroke-linejoin:miter;stroke-opacity:1" />
    </g>
    <path
       style="fill:#000000"
       d="m 51.70533,889.86519 c -1.413991,-1.41401 -0.06236,-3.15676 2.448379,-3.15676 4.81234,0 9.992916,-7.12504 9.992916,-13.74361 l 0,-2.04011 -14.042871,-0.0153 c -14.822085,-0.0156 -14.921192,-0.0293 -16.09041,-2.22394 -0.461847,-0.86694 -0.453974,-1.23944 0.04026,-1.90172 0.338037,-0.45298 2.206947,-2.92379 4.153156,-5.49069 10.400917,-13.71807 15.912797,-27.42323 16.947206,-42.1388 0.425328,-6.05083 0.563611,-6.19601 4.874002,-5.11703 5.3941,1.35026 11.018043,1.45612 15.877087,0.29885 5.06069,-1.20529 5.723657,-1.21143 6.340521,-0.0588 0.428787,0.8012 -0.610289,2.19686 -8.208423,11.02539 -22.92721,26.63984 -34.318013,39.90377 -34.899567,40.6385 -0.601338,0.75972 0.0832,0.80493 12.18597,0.80493 l 12.823081,0 0.0326,-10.79329 c 0.01796,-5.9363 0.174609,-11.14602 0.348161,-11.57714 0.173546,-0.43112 1.797187,-1.82357 3.608095,-3.09431 4.278002,-3.00193 6.837967,-5.92992 9.191389,-10.51277 1.234631,-2.40421 2.223668,-3.77247 2.804882,-3.88036 2.03946,-0.37858 2.119713,0.40439 2.119713,20.68117 l -2e-5,19.1767 6.001806,0 c 4.837215,0 6.14335,0.14156 6.731305,0.7295 0.855448,0.85545 0.901821,1.33068 0.248944,2.55062 -0.438981,0.82023 -1.027261,0.89794 -6.798638,0.89794 l -6.318069,0 0.26431,3.13354 c 0.331152,3.92615 1.60023,6.923 4.063152,9.59495 1.885997,2.04607 3.198934,2.69913 6.555667,3.26089 1.870997,0.31312 2.500595,1.24389 1.767678,2.61334 -0.621352,1.16103 -2.464497,1.15409 -10.877964,-0.0409 -8.161456,-1.15918 -13.062295,-1.1568 -21.766513,0.0107 -8.002047,1.07322 -9.654299,1.1316 -10.417844,0.36807 z m 133.69103,-56.10426 c -5.79991,-1.03348 -10.55202,-4.78336 -11.9263,-9.41104 -2.51794,-8.47884 2.34524,-18.3052 12.55128,-25.36063 10.55963,-7.29986 21.9464,-9.25325 30.04188,-5.15364 l 2.66745,1.35081 0.11797,-56.02089 0.11797,-56.02089 1.77326,-0.146 c 2.3474,-0.19328 3.10113,0.51823 3.10113,2.92742 0,2.98096 1.21752,9.34844 2.57892,13.4875 1.91499,5.82208 6.14082,13.99394 12.95252,25.04735 9.8824,16.0363 13.99336,24.73025 15.77707,33.3657 1.34437,6.50858 0.7054,18.90514 -1.41482,27.44812 -1.20669,4.86208 -3.93893,12.71524 -4.78915,13.76524 -1.51175,1.86692 -5.10659,0.96463 -5.7353,-1.43953 -0.12149,-0.46456 0.19292,-1.96558 0.69868,-3.3356 5.19979,-14.08552 6.80953,-26.56221 4.56126,-35.35291 -2.33393,-9.1256 -9.20059,-19.66488 -20.91505,-32.10142 l -3.71413,-3.94305 -0.003,40.02395 c -0.001,23.43032 -0.19543,41.75615 -0.466,44.202 -1.06917,9.6647 -7.92966,17.89128 -19.52522,23.41315 -6.47041,3.08126 -12.97851,4.22923 -18.44952,3.25437 z m 170.3715,0 c -5.79989,-1.03348 -10.55201,-4.78336 -11.92629,-9.41104 -2.51794,-8.47884 2.34526,-18.3052 12.55128,-25.36063 10.55962,-7.29986 21.94639,-9.25325 30.04188,-5.15364 l 2.66745,1.35081 0.11797,-56.02089 0.11796,-56.02089 1.80203,-0.14768 c 0.99112,-0.0812 1.97118,0.0233 2.17795,0.2321 0.20675,0.20891 0.59025,2.46886 0.85224,5.02212 0.26197,2.55325 0.90991,6.00014 1.43982,7.65975 1.65025,5.16822 5.84508,12.95994 11.13002,20.67356 10.54131,15.38552 14.09721,21.62581 16.52438,28.99879 1.17303,3.56331 1.30171,4.59865 1.32693,10.67724 0.0268,6.45576 -0.034,6.90515 -1.4856,10.97837 l -1.51351,4.24709 1.39375,3.48074 c 3.61212,9.0208 3.74891,19.84546 0.40313,31.8946 -1.36674,4.922 -3.54664,10.26248 -4.68988,11.48963 -1.63417,1.75409 -4.61517,1.16056 -5.47054,-1.08924 -0.35082,-0.9227 -0.0666,-2.01502 1.44346,-5.54969 2.91547,-6.82383 4.20471,-12.42388 4.48325,-19.47387 0.28813,-7.29241 -0.30183,-10.15361 -3.35024,-16.24797 -2.97932,-5.95624 -7.35167,-11.5399 -15.08596,-19.26545 l -6.73895,-6.73129 -0.23212,30.4427 -0.2321,30.44267 -1.94957,3.9336 c -3.13062,6.3166 -9.21515,11.82071 -17.34914,15.69416 -6.47041,3.08126 -12.97849,4.22923 -18.4495,3.25438 z m 62.4884,-75.64353 c 0.47803,-10.21611 -5.06129,-20.73917 -18.26478,-34.69779 -2.96021,-3.1295 -5.53706,-5.68999 -5.72633,-5.68999 -0.58761,0 -0.0279,5.62959 0.92309,9.28454 0.49827,1.91494 2.0454,5.77963 3.43806,8.58821 2.43432,4.90928 4.54026,8.15789 14.14163,21.81474 5.03369,7.15988 5.18518,7.17919 5.48833,0.70029 z m 39.64168,75.64353 c -5.79993,-1.03348 -10.55203,-4.78336 -11.92628,-9.41104 -2.51799,-8.47884 2.34522,-18.3052 12.55126,-25.36063 10.5596,-7.29986 21.94641,-9.25325 30.04189,-5.15364 l 2.66744,1.35081 0.11797,-56.02089 0.11797,-56.02089 1.77327,-0.146 c 2.34741,-0.19328 3.10112,0.51823 3.10112,2.92742 0,2.98096 1.21754,9.34844 2.57892,13.4875 1.915,5.82208 6.14081,13.99394 12.95251,25.04735 9.88242,16.0363 13.99336,24.73025 15.77704,33.3657 1.34442,6.50858 0.70545,18.90514 -1.41476,27.44812 -1.20673,4.86208 -3.93898,12.71524 -4.78916,13.76524 -1.51177,1.86692 -5.1066,0.96463 -5.73531,-1.43953 -0.12149,-0.46456 0.19293,-1.96558 0.69867,-3.3356 5.19982,-14.08552 6.80957,-26.56221 4.56126,-35.35291 -2.33394,-9.1256 -9.2006,-19.66488 -20.91507,-32.10142 l -3.7141,-3.94305 -0.005,40.02395 c 0,23.43032 -0.19543,41.75615 -0.46599,44.202 -1.0692,9.6647 -7.92966,17.89128 -19.52522,23.41315 -6.47041,3.08126 -12.97851,4.22923 -18.44952,3.25437 z m 143.4463,0 c -11.2455,-2.00381 -15.67937,-12.00805 -10.24505,-23.11605 3.58246,-7.3226 14.50275,-15.50282 23.85341,-17.86823 7.40196,-1.87247 12.54483,-1.35222 18.91728,1.91367 0.19149,0.0982 0.34817,-24.65843 0.34817,-55.0146 0,-44.33189 0.11781,-55.3542 0.5988,-56.01195 0.43754,-0.59839 1.09387,-0.77854 2.4372,-0.66901 l 1.83839,0.14983 0.36099,4.17803 c 0.9639,11.15634 4.34835,19.24542 15.82987,37.83457 9.34063,15.12289 13.59629,24.1804 15.34972,32.66936 1.34442,6.50857 0.70545,18.90513 -1.41477,27.44812 -1.20671,4.86207 -3.93897,12.71524 -4.78915,13.76523 -1.51177,1.86692 -5.1066,0.96464 -5.7353,-1.43953 -0.1215,-0.46455 0.19293,-1.96557 0.69865,-3.33559 5.19983,-14.08553 6.80958,-26.56221 4.56126,-35.35291 -2.32794,-9.10226 -9.55276,-20.18561 -20.90578,-32.07104 l -3.49127,-3.65496 -0.23211,43.84608 -0.23211,43.84609 -1.94957,3.93394 c -3.13047,6.31685 -9.21479,11.82089 -17.34911,15.69451 -6.47041,3.08126 -12.97851,4.22924 -18.44952,3.25438 z M 247.34388,821.01296 c -1.19638,-0.30377 -2.71903,-1.05311 -3.38368,-1.66521 -1.58233,-1.4572 -2.92249,-4.41563 -2.92249,-6.45149 0,-2.03586 1.34016,-4.9943 2.92249,-6.45151 1.53355,-1.41227 5.02415,-2.31529 7.32405,-1.89473 2.24678,0.41085 3.72536,1.3862 5.36983,3.54222 1.13122,1.4831 1.30755,2.13091 1.30755,4.80402 0,2.6731 -0.17633,3.32091 -1.30755,4.80402 -2.46204,3.22793 -5.45288,4.29209 -9.3102,3.31268 z M 37.314284,812.33919 c -1.28367,-1.28367 -0.08978,-7.84509 2.285848,-12.56213 1.996933,-3.96522 7.449512,-9.25923 15.494058,-15.04346 13.104891,-9.42275 17.068729,-14.97755 17.734832,-24.85313 0.61814,-9.16445 -2.214007,-17.21954 -6.91849,-19.67727 -3.082955,-1.61061 -9.121432,-0.28931 -10.869365,2.37835 -1.060651,1.61875 -0.60176,4.46684 1.055692,6.55229 3.465108,4.35984 3.480673,4.39479 3.304262,7.42071 -0.305006,5.23169 -4.012194,8.99094 -9.239316,9.36905 -3.698983,0.26755 -6.365955,-0.7838 -8.692175,-3.42651 -3.312045,-3.7627 -3.662948,-8.78796 -1.010555,-14.47233 3.125137,-6.69754 10.602977,-11.297 19.55661,-12.02883 6.280038,-0.51329 14.101778,1.20191 19.668078,4.31298 3.12388,1.74599 7.280165,5.74986 8.725682,8.40574 2.563072,4.70923 3.179949,9.4371 1.973984,15.1289 -1.051217,4.96141 -2.644948,7.91765 -6.152141,11.41162 -3.726821,3.71277 -7.040903,5.63862 -17.299289,10.05269 -4.212873,1.81276 -9.122082,4.05278 -10.909358,4.97784 l -3.249581,1.68194 2.155437,-0.26923 c 4.642295,-0.57983 10.957022,1.24038 16.967005,4.89068 4.955029,3.00953 7.685604,3.99623 11.072744,4.0011 3.211164,0.005 4.865039,-0.83135 6.24131,-3.15472 1.701851,-2.87305 2.21931,-3.14918 3.500487,-1.86801 1.710151,1.71015 -0.667601,7.6308 -4.375223,10.89437 -3.885353,3.42003 -11.519847,6.43443 -16.296318,6.43443 -2.580309,0 -6.804583,-1.05595 -9.283527,-2.32062 -1.005176,-0.5128 -3.166607,-2.18494 -4.803176,-3.71589 -4.315812,-4.03721 -6.842317,-4.86211 -11.213694,-3.66118 -2.494179,0.68521 -5.647395,3.96464 -6.071818,6.31488 -0.578612,3.20405 -1.878172,4.29957 -3.352003,2.82574 z"
       id="path3034"
       inkscape:connector-curvature="0" />
  </g>
</svg>
