<?xml version="1.0" encoding="UTF-8" standalone="no"?>
<!-- Created with Inkscape (http://www.inkscape.org/) -->

<svg
   xmlns:dc="http://purl.org/dc/elements/1.1/"
   xmlns:cc="http://creativecommons.org/ns#"
   xmlns:rdf="http://www.w3.org/1999/02/22-rdf-syntax-ns#"
   xmlns:svg="http://www.w3.org/2000/svg"
   xmlns="http://www.w3.org/2000/svg"
   xmlns:sodipodi="http://sodipodi.sourceforge.net/DTD/sodipodi-0.dtd"
   xmlns:inkscape="http://www.inkscape.org/namespaces/inkscape"
   width="1000"
   height="1000"
   id="svg2"
   version="1.1"
   inkscape:version="0.48.4 r9939"
   sodipodi:docname="logo.svg">
  <defs
     id="defs4" />
  <sodipodi:namedview
     id="base"
     pagecolor="#ffffff"
     bordercolor="#666666"
     borderopacity="1.0"
     inkscape:pageopacity="0.0"
     inkscape:pageshadow="2"
     inkscape:zoom="0.49497475"
     inkscape:cx="119.64063"
     inkscape:cy="629.73825"
     inkscape:document-units="px"
     inkscape:current-layer="layer1"
     showgrid="false"
     inkscape:window-width="1920"
     inkscape:window-height="983"
     inkscape:window-x="1918"
     inkscape:window-y="38"
     inkscape:window-maximized="1"
     showguides="true"
     inkscape:guide-bbox="true">
    <sodipodi:guide
       orientation="1,0"
       position="499.01536,1123.2896"
       id="guide3153" />
  </sodipodi:namedview>
  <metadata
     id="metadata7">
    <rdf:RDF>
      <cc:Work
         rdf:about="">
        <dc:format>image/svg+xml</dc:format>
        <dc:type
           rdf:resource="http://purl.org/dc/dcmitype/StillImage" />
        <dc:title></dc:title>
      </cc:Work>
    </rdf:RDF>
  </metadata>
  <g
     inkscape:label="Layer 1"
     inkscape:groupmode="layer"
     id="layer1"
     transform="translate(0,-52.362153)">
    <path
       style="fill:#ffffff;fill-opacity:1;stroke:none"
       d="m 555.34375,18.78125 c -64.68511,17.45456 -32.01406,95.35933 -42.08883,142.15569 -23.0832,49.89152 -109.28907,36.51361 -115.69189,99.68059 -4.62467,82.3134 -34.484,160.49444 -44.38919,242.06237 -31.17319,56.84025 -44.1298,-68.18969 -66.40434,-88.32169 -38.80246,-18.81532 -69.2103,-70.48366 -110.57837,-74.65897 -12.96487,23.21266 -16.24343,-48.01346 -19.92637,-65.03871 0.60699,-60.4053 31.1105,-142.18895 -43.29284,-174.0082 C 52.310679,70.909014 -3.2047174,135.87701 6.4992643,194.62782 18.758847,253.56086 -5.4356544,316.84598 20.275838,372.48784 c 33.70781,52.75885 109.478742,-2.61106 145.017712,45.4247 12.21058,32.63076 -40.83963,56.33961 12.69918,71.91772 51.05246,29.21137 96.35547,71.90718 128.83556,121.04129 31.73414,65.16969 -15.7728,132.89341 -19.45462,199.16194 -16.0181,76.57217 -32.04786,153.14199 -47.90492,229.74771 50.14398,36.0911 120.69789,60.1678 169.19371,12.0572 68.53042,-1.1639 143.12017,-14.7051 207.67536,8.5096 49.04759,41.2687 134.03012,18.3468 143.53457,-45.9547 C 747.05746,953.3697 729.57955,893.07799 717.50991,831.53867 677.30729,653.20913 638.78876,474.50477 598.53125,296.1875 c 52.20789,42.55562 125.50643,7.29875 164.99694,-36.09074 48.42819,-34.75692 32.59715,-101.17843 13.10146,-147.58558 C 766.24883,68.53086 734.88321,4.7090331 679.39311,33.107881 631.00856,65.940625 686.85539,129.72566 653.79073,170.17705 631.37799,140.58603 628.42156,91.749356 604.02713,58.770239 592.71731,40.81404 576.7523,23.832259 555.34375,18.78125 z m -247.5,0.15625 c -70.07842,18.873487 -20.71063,103.82652 -49.43978,148.57367 -25.88774,37.28396 -83.55263,82.13251 -43.43316,129.6353 53.11268,39.21208 120.72605,6.55096 172.51136,-18.20512 39.66461,-60.36676 3.5716,-133.89369 -21.98559,-192.398271 C 356.22082,58.128606 344.94993,18.525795 307.84375,18.9375 z m 605.21875,0.03125 c -55.2517,9.980691 -42.92974,75.346446 -43.46478,116.62261 -0.24046,49.36548 -64.58662,66.79273 -63.15574,119.26308 -7.28783,77.49571 94.39448,73.65983 133.50776,31.66381 59.22025,-32.98336 81.91736,-108.1498 46.47196,-167.10858 C 955.51615,91.4172 964.46782,18.356361 913.0625,18.96875 z"
       id="path4042"
       inkscape:connector-curvature="0" />
    <g
       id="g3142"
       transform="matrix(0.83961353,0,0,0.83961353,50.054425,168.80182)">
      <path
         transform="matrix(2.4546637,0,0,2.4546637,333.61717,-728.31553)"
         d="m 179.28572,712.14288 c 0,6.90356 -5.59644,12.5 -12.5,12.5 -6.90356,0 -12.5,-5.59644 -12.5,-12.5 0,-6.90356 5.59644,-12.5 12.5,-12.5 6.90356,0 12.5,5.59644 12.5,12.5 z"
         sodipodi:ry="12.5"
         sodipodi:rx="12.5"
         sodipodi:cy="712.14288"
         sodipodi:cx="166.78572"
         id="path3076-3"
         style="fill:#28170b;fill-opacity:1;stroke:#000000"
         sodipodi:type="arc" />
      <path
         transform="matrix(2.4546637,0,0,2.4546637,-71.037151,-727.51271)"
         d="m 179.28572,712.14288 c 0,6.90356 -5.59644,12.5 -12.5,12.5 -6.90356,0 -12.5,-5.59644 -12.5,-12.5 0,-6.90356 5.59644,-12.5 12.5,-12.5 6.90356,0 12.5,5.59644 12.5,12.5 z"
         sodipodi:ry="12.5"
         sodipodi:rx="12.5"
         sodipodi:cy="712.14288"
         sodipodi:cx="166.78572"
         id="path3076"
         style="fill:#28170b;fill-opacity:1;stroke:#000000"
         sodipodi:type="arc" />
      <path
         inkscape:connector-curvature="0"
         id="path3066"
         d="m 272.61577,1006.5319 529.506,0 -205.13975,-920.498931 -131.49984,0 z"
         style="fill:#502d16;stroke:#000000;stroke-width:2.45466375px;stroke-linecap:butt;stroke-linejoin:miter;stroke-opacity:1" />
      <path
         inkscape:connector-curvature="0"
         id="path3068"
         d="m 379.56895,704.95888 319.10628,0 -110.45987,-533.01269 -98.18654,0 z"
         style="fill:#a05a2c;stroke:#000000;stroke-width:2.45466375px;stroke-linecap:butt;stroke-linejoin:miter;stroke-opacity:1" />
      <path
         inkscape:connector-curvature="0"
         id="path3070"
         d="m 465.52862,85.921061 131.41798,0 -62.91946,-22.316255 z"
         style="fill:#784421;stroke:#000000;stroke-width:2.45466375px;stroke-linecap:butt;stroke-linejoin:miter;stroke-opacity:1" />
      <path
         inkscape:connector-curvature="0"
         id="path3098"
         d="m 499.67215,646.22226 76.2699,0 -12.27332,-472.52275 -55.22994,0 z"
         style="fill:#d45500;stroke:#000000;stroke-width:2.45466375px;stroke-linecap:butt;stroke-linejoin:miter;stroke-opacity:1" />
      <path
         inkscape:connector-curvature="0"
         id="path3100"
         d="m 394.86045,695.58897 9.29844,-44.01265 266.55536,0 10.53825,44.01265 z"
         style="fill:#d45500;stroke:#000000;stroke-width:2.45466375px;stroke-linecap:butt;stroke-linejoin:miter;stroke-opacity:1" />
      <path
         inkscape:connector-curvature="0"
         id="path3072"
         d="M 505.80882,703.20554 174.42922,260.48942 162.1559,269.25606 489.08468,704.8874 z"
         style="fill:#666666;stroke:#000000;stroke-width:2.45466375px;stroke-linecap:butt;stroke-linejoin:miter;stroke-opacity:1" />
      <path
         inkscape:connector-curvature="0"
         id="path3074"
         d="m 182.23606,349.68689 62.60951,-45.25243 24.17596,49.59169 0.6199,9.29844 -34.71419,26.65554 -11.15815,-0.61988 z"
         style="fill:#4d4d4d;stroke:#000000;stroke-width:2.45466375px;stroke-linecap:butt;stroke-linejoin:miter;stroke-opacity:1" />
    </g>
    <path
       style="fill:#ffffff;fill-opacity:0.50196078"
       d="m 307.27967,52.109449 c -7.13482,1.132852 -6.86522,9.941443 -5.90625,15.4375 -0.60164,47.775701 0.0596,96.529091 -0.71875,143.812501 -21.6668,-6.13906 -44.4046,5.96529 -58,22.34375 -9.16835,11.35687 -12.29733,30.37695 -0.5,41.125 13.21456,12.10273 33.93618,9.18375 48.53125,1.09375 17.18176,-8.38906 31.01139,-26.02077 29.16327,-45.90588 0.69753,-32.91241 0.3555,-65.83366 0.46173,-98.75037 14.39948,15.68185 28.36826,35.64223 24.625,58 -1.27448,12.35341 -6.83618,23.79535 -8.5625,35.9375 0.18402,2.64392 2.78346,4.87822 4.1875,6.375 -9.68215,7.02239 -9.59322,23.62016 0.78125,30 10.35289,7.06693 27.17899,0.55689 28.46875,-12.34375 1.67145,-9.06965 -4.87896,-18.36586 -13.5,-20.90625 5.07086,-10.49325 7.68268,-22.21773 9.53125,-33.65625 3.01079,-20.5674 -1.42512,-41.88093 -12.125,-59.46875 -12.8344,-23.99066 -32.28985,-46.652711 -33.625,-74.906251 -0.72128,-6.499248 -6.7469,-9.21658 -12.8125,-8.1875 z m 246.90625,-0.03125 c -7.49896,0.816399 -7.01764,10.028943 -6.0625,15.5625 -0.69826,47.840751 -0.0966,96.293801 -0.6875,143.750001 -21.12967,-6.12937 -43.43545,5.51974 -57.21875,21.15625 -9.29831,11.07366 -13.43236,29.5644 -2.5625,41.0625 12.56054,13.08339 33.76678,10.93908 48.4375,2.84375 14.36516,-7.2033 28.6073,-20.12943 29.92192,-37.09369 0.18228,-23.26044 0.36455,-46.52087 0.54683,-69.78131 13.30282,13.0265 27.46761,29.70216 24.47461,49.74613 -0.62425,11.44354 -6.3063,21.95249 -8.75586,32.97262 0.64752,9.82132 16.58142,12.98195 20.21875,3.46875 10.48818,-20.67201 14.12805,-46.27178 5.125,-68.09375 -0.80792,-5.60705 3.46656,-10.09598 3.25,-15.78125 2.73132,-20.17149 -6.57876,-39.14213 -17.77345,-55.14455 -11.54116,-17.198231 -25.7545,-34.666861 -26.66405,-56.199201 -0.39318,-5.207582 -5.02265,-9.521214 -10.375,-8.4375 -0.62271,-0.06373 -1.25082,-0.09583 -1.875,-0.03125 z m 147.6875,0.03125 c -7.11001,1.10632 -6.87582,9.914621 -5.90625,15.4375 -0.60164,47.775701 0.0596,96.529091 -0.71875,143.812501 -21.65054,-6.16007 -44.48021,6.01263 -58.0625,22.40625 -9.33811,11.53951 -12.18384,31.03279 0.0625,41.53125 13.70605,11.86005 34.44398,8.40299 49.07169,0.0954 16.74132,-8.54388 30.1283,-26.28522 28.15426,-45.87626 0.67072,-32.74617 0.30506,-65.50036 0.4303,-98.25037 14.38329,15.62775 28.27466,35.5092 24.6875,57.78125 -1.25168,12.47011 -7.31453,24.30992 -8.46875,36.59375 1.82821,9.74821 18.54765,10.76931 20.71875,0.71875 11.47526,-27.23426 13.95031,-60.25451 -1.10821,-86.54829 -12.79894,-25.79117 -34.30823,-48.968451 -35.95429,-78.920461 -0.31723,-5.756919 -5.69866,-9.868989 -11.375,-8.84375 -0.48819,0.197945 -1.04374,-0.142746 -1.53125,0.0625 z m 209,0.0625 c -7.48286,0.801889 -9.05561,9.59119 -8.02847,15.747867 -0.53773,47.618904 -0.0899,95.523144 -0.59653,143.252134 -21.61314,-5.78188 -43.90261,6.57645 -57.59375,22.75 -9.34708,11.70808 -11.72706,31.52413 0.875,41.90625 14.3816,11.82682 35.85658,7.38315 50.53125,-1.71875 14.63082,-8.41644 27.85601,-23.74585 25.5799,-41.74987 0.1817,-33.61463 0.3634,-67.22925 0.5451,-100.84388 14.04886,15.42882 27.93327,35.07468 24.4375,57.0625 -0.99505,12.6026 -7.28345,24.50823 -8.4375,37.03125 1.7775,9.84405 18.48431,10.75106 20.71875,0.78125 11.49299,-27.39832 13.99267,-60.65769 -1.39338,-87.07754 -12.95762,-25.84923 -34.84996,-49.489681 -35.70037,-79.734961 1.57697,-5.517836 -4.79305,-8.43012 -9.40625,-7.4375 -0.51049,0.0064 -1.02155,-0.01637 -1.53125,0.03125 z M 572.09217,128.7032 c 7.01889,8.07983 13.48863,17.04888 16.375,27.46875 -6.62599,-9.24554 -13.53842,-18.58444 -17.8125,-29.09375 0.47917,0.54167 0.95833,1.08333 1.4375,1.625 z m -495.000005,0.15625 c -19.1704,0.38774 -38.818777,16.65562 -36.78125,36.96875 1.593117,14.66028 20.232502,23.97991 32.625,15.4375 10.685503,-6.52787 12.817688,-23.84202 2.46875,-31.71875 -1.41809,-4.12091 5.552589,-4.33892 7.96875,-2.75 5.530607,3.99203 5.677186,11.81762 6.5,17.90625 0.719231,12.71683 -6.441538,24.51387 -17.060262,31.12701 -13.9029,10.35151 -30.519422,20.99311 -34.408488,38.96674 -2.662025,6.54304 -0.77057,17.414 7.90625,17.59375 7.281009,-0.17245 7.350786,-8.85876 10.90625,-13.09375 3.723415,-3.48927 11.003068,-1.12896 12.375,2.8125 -8.02445,4.50016 -4.50132,15.13436 -6.53125,22.46875 -3.785285,22.10058 -16.744008,41.27798 -29.84375,58.90625 -1.972001,8.92977 8.584778,14.35866 16.186863,12.69194 9.100221,0.37082 18.218387,-0.28147 27.313137,0.27681 -1.052658,6.67396 -6.927553,11.84833 -13.65625,11.78125 -7.454927,3.08523 -5.402545,16.22173 2.9375,16.0625 16.882423,-0.56308 33.982161,-4.71405 50.656255,-0.34375 6.31012,1.70031 16.59886,0.60906 17.15625,-7.59375 0.14255,-5.84425 -5.51633,-9.47754 -10.8125,-9.4375 -4.08769,-1.717 -7.21435,-6.86139 -7.0625,-10.78125 6.83898,1.06895 17.67747,0.71867 18.75,-8.125 0.40072,-7.31892 -7.84366,-11.185 -14.1875,-9.8125 -3.92785,0.88747 -7.0203,0.44825 -5.37127,-4.56237 -0.40602,-16.61407 2.06453,-33.90491 -2.06623,-50.06263 -1.17313,-1.64394 -3.01711,-2.6593 -5,-2.96875 4.11363,-3.55755 8.13738,-9.31722 7.15625,-14.375 9.58666,-5.1417 18.91138,-16.42554 14.6875,-27.84375 -3.38404,-6.58863 -14.29557,-4.42314 -15.5,2.375 -6.09551,4.75449 -13.59664,-1.48602 -19.031255,-4.5 -2.528633,-1.34251 -5.193039,-2.45444 -7.8125,-3.53125 15.945675,-6.33847 34.017775,-15.41698 38.812505,-33.34375 5.00846,-16.24256 -2.1641,-35.34205 -17.46875,-43.15625 -9.507045,-5.63896 -20.796802,-7.73257 -31.812505,-7.375 z m 0.03125,169.34375 c 0.179577,6.48125 -0.03912,13.16424 0.34375,19.4375 -5.181244,2.07608 -11.671742,-0.58888 -17.28125,0.71875 -2.482091,-1.2172 6.543682,-8.05049 8.275744,-11.31444 2.289437,-1.98239 7.845794,-10.69214 8.661756,-8.84181 z"
       id="path3034-7"
       inkscape:connector-curvature="0" />
    <path
       style="fill:#000000"
       d="m 65.844603,357.27965 c -2.047508,-2.04753 -0.09029,-4.5711 3.545346,-4.5711 6.968434,0 14.470097,-10.31731 14.470097,-19.90124 l 0,-2.95415 -20.334579,-0.0222 c -21.462911,-0.0226 -21.606423,-0.0424 -23.299487,-3.22029 -0.668778,-1.25537 -0.657375,-1.79476 0.05835,-2.75376 0.489482,-0.65593 3.195739,-4.23376 6.013918,-7.95072 15.060896,-19.86425 23.042301,-39.70981 24.540162,-61.01849 0.61589,-8.76182 0.816128,-8.97204 7.057727,-7.40964 7.81085,1.95522 15.954514,2.10851 22.990593,0.43275 7.32806,-1.74531 8.28806,-1.7542 9.1813,-0.0852 0.6209,1.16017 -0.88372,3.18114 -11.886098,15.96516 -33.199419,38.57544 -49.693707,57.78209 -50.535813,58.846 -0.870768,1.10011 0.120463,1.16558 17.645715,1.16558 l 18.568283,0 0.04725,-15.62907 c 0.02596,-8.59598 0.252838,-16.13984 0.504145,-16.76412 0.251307,-0.62427 2.602389,-2.64059 5.224656,-4.48067 6.1947,-4.3469 9.901617,-8.58673 13.309462,-15.22286 1.78779,-3.48139 3.21995,-5.46268 4.06157,-5.6189 2.95321,-0.54821 3.06942,0.58556 3.06942,29.94706 l -3e-5,27.76856 8.69083,0 c 7.00446,0 8.89579,0.20498 9.74717,1.05634 1.23872,1.23872 1.30587,1.92687 0.36048,3.69339 -0.63566,1.18772 -1.48751,1.30024 -9.84467,1.30024 l -9.14879,0 0.38273,4.53748 c 0.47952,5.68521 2.31719,10.02475 5.88359,13.89383 2.73099,2.96278 4.63217,3.90844 9.49284,4.72189 2.70927,0.45341 3.62095,1.80119 2.55966,3.78421 -0.89974,1.68121 -3.56868,1.67116 -15.75168,-0.0592 -11.81808,-1.67853 -18.914678,-1.67509 -31.518693,0.0155 -11.587249,1.55406 -13.979772,1.6386 -15.085409,0.53297 z M 259.434,276.03868 c -8.39848,-1.49651 -15.2797,-6.92648 -17.26971,-13.62752 -3.64606,-12.27766 3.396,-26.50659 18.17471,-36.7231 15.29071,-10.57046 31.77916,-13.39904 43.50171,-7.46266 l 3.86257,1.95602 0.17082,-81.12024 0.17082,-81.12025 2.56774,-0.21142 c 3.39912,-0.279881 4.49056,0.750417 4.49056,4.239016 0,4.316532 1.76301,13.536882 3.73436,19.530373 2.77297,8.43058 8.89213,20.263721 18.75572,36.269461 14.31006,23.22113 20.26288,35.81028 22.84575,48.31473 1.9467,9.42465 1.02145,27.37531 -2.04871,39.74586 -1.74732,7.04046 -5.70371,18.41212 -6.93486,19.93255 -2.18907,2.70337 -7.39452,1.39683 -8.30491,-2.08449 -0.17592,-0.67269 0.27935,-2.84622 1.01171,-4.83006 7.52948,-20.39634 9.86044,-38.46303 6.60487,-51.19228 -3.37962,-13.2142 -13.32279,-28.47545 -30.28575,-46.48401 l -5.37818,-5.70968 -0.004,57.95612 c -0.002,33.92794 -0.28299,60.46439 -0.67479,64.00607 -1.5482,13.99484 -11.48243,25.90721 -28.27322,33.90308 -9.36938,4.46177 -18.79334,6.12408 -26.71556,4.71245 z m 246.70403,0 c -8.39845,-1.49651 -15.2797,-6.92648 -17.2697,-13.62752 -3.64607,-12.27766 3.39602,-26.50659 18.1747,-36.7231 15.29071,-10.57046 31.77916,-13.39904 43.50172,-7.46266 l 3.86256,1.95602 0.17082,-81.12024 0.17082,-81.12025 2.6094,-0.21386 c 1.43517,-0.117578 2.85434,0.03372 3.15375,0.336097 0.29938,0.30251 0.8547,3.575007 1.23408,7.272211 0.37934,3.6972 1.31757,8.68843 2.08491,11.0916 2.38962,7.483761 8.46388,18.766441 16.11666,29.936042 15.26418,22.27878 20.41325,31.31495 23.92789,41.99128 1.69859,5.15981 1.88492,6.65902 1.92144,15.46103 0.0388,9.34818 -0.0493,9.9989 -2.1512,15.89708 l -2.19162,6.14993 2.0182,5.04024 c 5.23047,13.06244 5.42855,28.73694 0.58374,46.18452 -1.97909,7.12723 -5.13565,14.86043 -6.79111,16.6374 -2.36634,2.53998 -6.68292,1.68053 -7.92153,-1.57726 -0.508,-1.33611 -0.0965,-2.91783 2.09019,-8.03616 4.22169,-9.88114 6.08855,-17.99022 6.49189,-28.19885 0.41723,-10.55968 -0.43706,-14.70279 -4.85127,-23.52765 -4.31415,-8.62485 -10.64547,-16.71019 -21.84499,-27.89705 l -9.75824,-9.74715 -0.33612,44.08211 -0.3361,44.08208 -2.82304,5.69599 c -4.53325,9.14666 -13.34387,17.11681 -25.12217,22.72571 -9.36939,4.46177 -18.79333,6.12408 -26.71554,4.71245 z m 90.48542,-109.53453 c 0.6922,-14.7933 -7.32892,-30.03107 -26.44804,-50.24364 -4.28649,-4.53163 -8.01786,-8.23932 -8.29193,-8.23932 -0.85089,0 -0.0404,8.15185 1.33667,13.44435 0.72151,2.7729 2.9618,8.36912 4.97843,12.43603 3.52498,7.10882 6.57446,11.81293 20.47758,31.58853 7.28896,10.36776 7.50832,10.39573 7.94729,1.01405 z m 57.40257,109.53453 c -8.3985,-1.49651 -15.27972,-6.92648 -17.26968,-13.62752 -3.64614,-12.27766 3.39597,-26.50659 18.17468,-36.7231 15.29068,-10.57046 31.77918,-13.39904 43.50173,-7.46266 l 3.86255,1.95602 0.17082,-81.12024 0.17082,-81.12025 2.56776,-0.21142 c 3.39913,-0.279881 4.49054,0.750417 4.49054,4.239016 0,4.316532 1.76304,13.536882 3.73436,19.530373 2.77299,8.43058 8.89211,20.263721 18.7557,36.269461 14.3101,23.22113 20.26288,35.81028 22.84572,48.31473 1.94677,9.42465 1.02152,27.37531 -2.04863,39.74586 -1.74738,7.04046 -5.70378,18.41212 -6.93487,19.93255 -2.18909,2.70337 -7.39454,1.39683 -8.30493,-2.08449 -0.17592,-0.67269 0.27937,-2.84622 1.01169,-4.83006 7.52953,-20.39634 9.86051,-38.46303 6.60487,-51.19228 -3.37963,-13.2142 -13.3228,-28.47545 -30.28576,-46.48401 l -5.37815,-5.70968 -0.007,57.95612 c 0,33.92794 -0.28299,60.46439 -0.67477,64.00607 -1.54824,13.99484 -11.48243,25.90721 -28.27321,33.90308 -9.36939,4.46177 -18.79335,6.12408 -26.71557,4.71245 z m 207.71538,0 c -16.28389,-2.90159 -22.70429,-17.38808 -14.83519,-33.47287 5.18752,-10.60338 21.0005,-22.44864 34.54059,-25.87383 10.7183,-2.71141 18.16535,-1.95806 27.39289,2.77106 0.27728,0.1422 0.50416,-35.70628 0.50416,-79.66311 0,-64.194152 0.1706,-80.154844 0.86709,-81.107296 0.63357,-0.866487 1.58396,-1.127356 3.52915,-0.968758 l 2.66205,0.216965 0.52273,6.049947 c 1.39577,16.154761 6.29657,27.868041 22.92222,54.785792 13.52556,21.89849 19.68792,35.01408 22.22695,47.3064 1.94676,9.42465 1.02151,27.37531 -2.04864,39.74586 -1.74737,7.04046 -5.70378,18.41212 -6.93487,19.93255 -2.18909,2.70337 -7.39453,1.39683 -8.30492,-2.08449 -0.17593,-0.67269 0.27937,-2.84622 1.01168,-4.83006 7.52953,-20.39634 9.86051,-38.46303 6.60487,-51.19228 -3.37095,-13.18039 -13.83275,-29.22948 -30.27233,-46.44 l -5.05548,-5.29252 -0.3361,63.4907 -0.33611,63.4907 -2.82304,5.69648 c -4.53303,9.14703 -13.34334,17.11708 -25.12213,22.72621 -9.36939,4.46178 -18.79335,6.12409 -26.71557,4.71246 z M 349.13623,257.57917 c -1.7324,-0.43988 -3.93726,-1.52495 -4.8997,-2.41129 -2.29127,-2.11007 -4.23187,-6.39399 -4.23187,-9.34199 0,-2.948 1.9406,-7.23192 4.23187,-9.34201 2.22064,-2.04502 7.27516,-3.35263 10.60549,-2.74364 3.25342,0.59492 5.39446,2.00726 7.77571,5.12926 1.63805,2.14758 1.89337,3.08564 1.89337,6.95639 0,3.87075 -0.25532,4.8088 -1.89337,6.95639 -3.56513,4.67416 -7.89597,6.21511 -13.4815,4.79689 z M 45.005856,245.01923 c -1.858805,-1.8588 -0.130002,-11.35996 3.30999,-18.19041 2.891632,-5.74178 10.787161,-13.4077 22.435951,-21.78346 18.976347,-13.64449 24.71613,-21.68804 25.680673,-35.98822 0.895083,-13.27046 -3.205966,-24.93452 -10.01822,-28.4934 -4.464234,-2.33222 -13.208169,-0.41893 -15.739234,3.44394 -1.535864,2.34401 -0.871368,6.46815 1.528675,9.48795 5.017607,6.31321 5.040147,6.36381 4.784691,10.74545 -0.441652,7.57567 -5.809798,13.0192 -13.378858,13.56672 -5.356255,0.38743 -9.218131,-1.13497 -12.586577,-4.96171 -4.795961,-5.44852 -5.304077,-12.72527 -1.46332,-20.95645 4.525307,-9.69828 15.353488,-16.35846 28.318668,-17.41817 9.093721,-0.74327 20.419879,1.74041 28.480085,6.24535 4.52349,2.52825 10.54194,8.326 12.6351,12.17181 3.71142,6.81913 4.60468,13.66526 2.8584,21.90718 -1.5222,7.18431 -3.82998,11.46504 -8.90852,16.52444 -5.39657,5.37622 -10.19548,8.16492 -25.049995,14.55666 -6.100393,2.62493 -13.2091,5.86856 -15.797136,7.20809 l -4.705513,2.4355 3.121154,-0.38985 c 6.722206,-0.83962 15.866152,1.79611 24.568824,7.08188 7.175066,4.35791 11.129036,5.78668 16.033736,5.79374 4.64988,0.007 7.04475,-1.20383 9.03764,-4.56815 2.46434,-4.16028 3.21364,-4.56013 5.06883,-2.70495 2.47636,2.47636 -0.96671,11.04968 -6.33548,15.77544 -5.62613,4.95232 -16.68115,9.31728 -23.597654,9.31728 -3.736379,0 -9.853278,-1.52905 -13.442882,-3.36033 -1.455533,-0.74256 -4.585362,-3.16388 -6.955168,-5.38075 -6.249452,-5.84602 -9.907918,-7.04051 -16.237833,-5.30152 -3.611657,0.99221 -8.177629,5.74094 -8.792209,9.14417 -0.837847,4.63958 -2.719657,6.22593 -4.853818,4.09177 z"
       id="path3034"
       inkscape:connector-curvature="0" />
  </g>
</svg>
